<svg width="27" height="27" viewBox="0 0 27 27" fill="none" xmlns="http://www.w3.org/2000/svg">
<path d="M16.1999 10.8C17.274 10.8 18.3042 11.2267 19.0637 11.9863C19.8232 12.7458 20.2499 13.7759 20.2499 14.85V19.575H17.5499V14.85C17.5499 14.492 17.4077 14.1486 17.1545 13.8955C16.9013 13.6423 16.5579 13.5 16.1999 13.5C15.8419 13.5 15.4985 13.6423 15.2453 13.8955C14.9921 14.1486 14.8499 14.492 14.8499 14.85V19.575H12.1499V14.85C12.1499 13.7759 12.5766 12.7458 13.3361 11.9863C14.0956 11.2267 15.1258 10.8 16.1999 10.8V10.8Z" stroke="#788995" stroke-width="2" stroke-linecap="round" stroke-linejoin="round"/>
<path d="M9.45 11.4751H6.75V19.5751H9.45V11.4751Z" stroke="#788995" stroke-width="2" stroke-linecap="round" stroke-linejoin="round"/>
<path d="M8.1 9.45C8.84558 9.45 9.45 8.84558 9.45 8.1C9.45 7.35442 8.84558 6.75 8.1 6.75C7.35442 6.75 6.75 7.35442 6.75 8.1C6.75 8.84558 7.35442 9.45 8.1 9.45Z" stroke="#788995" stroke-width="2" stroke-linecap="round" stroke-linejoin="round"/>
</svg>
