<svg width="27" height="27" viewBox="0 0 27 27" fill="none" xmlns="http://www.w3.org/2000/svg">
<path d="M20.925 7.43184C20.2786 7.88778 19.5629 8.23651 18.8055 8.46459C18.3989 7.99716 17.8587 7.66585 17.2577 7.51549C16.6567 7.36512 16.0241 7.40294 15.4454 7.62384C14.8666 7.84474 14.3696 8.23806 14.0217 8.7506C13.6738 9.26313 13.4916 9.87016 13.5 10.4896V11.1646C12.3137 11.1953 11.1383 10.9323 10.0784 10.3988C9.01845 9.86526 8.10692 9.07792 7.42495 8.10684C7.42495 8.10684 4.72495 14.1818 10.8 16.8818C9.40981 17.8255 7.75378 18.2986 6.07495 18.2318C12.15 21.6068 19.575 18.2318 19.575 10.4693C19.5743 10.2813 19.5563 10.0938 19.521 9.90909C20.2099 9.22969 20.696 8.37192 20.925 7.43184V7.43184Z" stroke="#788995" stroke-width="2" stroke-linecap="round" stroke-linejoin="round"/>
</svg>
